<?xml version="1.0" encoding="utf-8"?>
<!-- Generator: Adobe Illustrator 16.0.0, SVG Export Plug-In . SVG Version: 6.00 Build 0)  -->
<!DOCTYPE svg PUBLIC "-//W3C//DTD SVG 1.0//EN" "http://www.w3.org/TR/2001/REC-SVG-20010904/DTD/svg10.dtd">
<svg version="1.0" id="PRÒHÒSTING_1_" xmlns="http://www.w3.org/2000/svg" xmlns:xlink="http://www.w3.org/1999/xlink" x="0px"
	 y="0px" width="792px" height="180px" viewBox="0 0 792 180" enable-background="new 0 0 792 180" xml:space="preserve">
<g>
	<polygon fill-rule="evenodd" clip-rule="evenodd" fill="#B6FF2E" points="187.346,125.82 171.33,142.013 716.899,142.021 
		722.641,134.32 716.472,125.82 	"/>
	<path fill="#404040" d="M716.472,125.82l6.169,8.388l-5.741,7.813l-545.166-0.008l16.016-16.192h528.94 M720.847,117.82H184.015
		l-31.453,32.192l568.342,0.008l11.596-15.552L720.847,117.82L720.847,117.82z"/>
</g>
<g id="PRÒHÒSTING_2_">
	<g>
		<path fill="#FFFFFF" d="M187.188,47.576v71.792h17.143V85.596h30.027V34.884h-34.287L187.188,47.576z M204.331,51.771h12.884
			v16.94h-12.884V51.771z M244.547,47.735v71.633h17.142V85.596h4.151l8.625,33.772h17.25l-8.625-33.772h8.625V34.884h-34.231
			L244.547,47.735z M261.689,51.771h12.776v16.94h-12.776V51.771z M301.958,119.368h34.233l12.883,0.053V34.884h-47.117V119.368z
			 M319.048,51.824h12.884v50.658h-12.884V51.824z M389.938,68.71h-12.885V34.884h-17.141v84.484h17.141V85.596h12.885v33.772
			h17.143V34.884h-17.143V68.71z M417.809,119.368h34.23l12.885,0.053V34.884h-47.115V119.368z M434.897,51.824h12.883v50.658
			h-12.883V51.824z M475.436,69.454l30.027,24.639v8.443h-12.885v-8.443h-17.143v25.329h47.171V85.649L492.578,60.32v-8.496h12.885
			v8.496h17.144V34.938l-47.171,0.212V69.454z M530.853,51.771h17.144v67.598h17.143V51.771h17.143V34.884h-51.429V51.771z
			 M589.882,51.771h8.466l0.107,50.712h-8.573v16.886h34.288v-16.886h-8.572V51.771h8.572V34.884h-34.288V51.771z M664.169,72.906
			l-10.728-38.021h-19.299v84.484h17.143V85.596l12.884,33.772h17.143V34.884h-17.143V72.906z M743.252,51.771V34.884H704.71
			l-12.887,12.692v71.792h51.429V68.71h-25.714v16.885h8.571v16.887h-17.144V51.771H743.252z"/>
		<path fill="#404040" d="M743.252,34.884v16.886h-34.286v50.712h17.144V85.596h-8.571V68.71h25.714v50.658h-51.429V47.576
			l12.887-12.692H743.252 M681.312,34.884v84.484h-17.143l-12.884-33.772v33.772h-17.143V34.884h19.299l10.728,38.021V34.884
			H681.312 M624.17,34.884v16.886h-8.572v50.712h8.572v16.886h-34.288v-16.886h8.573l-0.107-50.712h-8.466V34.884H624.17
			 M582.281,34.884v16.886h-17.143v67.598h-17.143V51.771h-17.144V34.884H582.281 M464.924,34.884v84.537l-12.885-0.053h-34.23
			V34.884H464.924 M434.897,102.482h12.883V51.824h-12.883V102.482 M407.08,34.884v84.484h-17.143V85.596h-12.885v33.772h-17.141
			V34.884h17.141V68.71h12.885V34.884H407.08 M349.075,34.884v84.537l-12.883-0.053h-34.233V34.884H349.075 M319.048,102.482h12.884
			V51.824h-12.884V102.482 M291.716,34.884v50.711h-8.625l8.625,33.772h-17.25l-8.625-33.772h-4.151v33.772h-17.142V47.735
			l12.937-12.851H291.716 M261.689,68.71h12.776v-16.94h-12.776V68.71 M234.358,34.884v50.711h-30.027v33.772h-17.143V47.576
			l12.883-12.692H234.358 M204.331,68.71h12.884v-16.94h-12.884V68.71 M522.606,34.938V60.32h-17.144v-8.496h-12.885v8.496
			l30.028,25.329v33.771h-47.171V94.092h17.143v8.443h12.885v-8.443l-30.027-24.639V35.149L522.606,34.938 M751.25,27.002h-49.852
			L689.31,38.909V27.002H254.153l-11.797,11.718V27.002H196.76L179.191,44.31v82.94h33.138h24.221h514.7V27.002L751.25,27.002z"/>
	</g>
</g>
<g>
	<path id="MC_5_" fill-rule="evenodd" clip-rule="evenodd" fill="#B6FF2E" d="M69.725,93.858L56.371,35.002H29.66V142.02h21.342
		V99.24l10.67,42.779h16.04L88.382,99.24v42.779h21.207V35.002H83.013L69.725,93.858z M176.399,77.85V35.002h-42.684l-16.039,16.076
		v90.941h42.682l16.041-16.076v-16.008h-21.341v10.695h-16.041V56.392h16.041V77.85H176.399z"/>
	<path id="MC_3_" fill="#404040" d="M176.399,35.002V77.85h-21.341V56.392h-16.041v64.239h16.041v-10.695h21.341v16.008
		l-16.041,16.076h-42.682V51.079l16.039-16.076H176.399 M109.589,35.002V142.02H88.382V99.24L77.711,142.02h-16.04L51.001,99.24
		v42.779H29.66V35.002h26.711l13.354,58.856l13.289-58.856H109.589 M184.399,27.002h-54.003L117.589,39.84V27.002H76.618
		l-6.913,30.616l-6.947-30.616H21.66V150.02h142.018l20.722-20.768V27.002L184.399,27.002z"/>
</g>
<g>
	<g>
		<g>
			<polygon fill-rule="evenodd" clip-rule="evenodd" fill="#B6FF2E" points="716.452,118.729 734.732,124.669 746.031,109.117 
				746.031,128.34 764.312,134.279 746.03,140.22 746.031,159.441 734.731,143.891 716.452,149.83 727.749,134.279 			"/>
			<path fill="#404040" d="M746.031,109.117v19.223l18.28,5.939l-18.281,5.94l0.001,19.222l-11.3-15.551l-18.279,5.939
				l11.297-15.551l-11.297-15.55l18.28,5.939L746.031,109.117 M751.031,93.729l-9.045,12.45l-9.164,12.612l-14.825-4.816
				l-14.634-4.755l9.044,12.448l9.162,12.611l-9.162,12.612l-9.044,12.448l14.634-4.755l14.825-4.816l9.164,12.612l9.046,12.448
				l-0.001-15.388l-0.001-15.589l14.826-4.818l14.635-4.755l-14.635-4.755l-14.825-4.817v-15.59V93.729L751.031,93.729z"/>
		</g>
	</g>
</g>
</svg>
