<svg xmlns="http://www.w3.org/2000/svg" xmlns:xlink="http://www.w3.org/1999/xlink" width="400" height="400" version="1"><defs><linearGradient id="b"><stop offset="0" stop-color="#fff"/><stop offset=".4" stop-color="#fff" stop-opacity=".7"/><stop offset=".8" stop-color="#1f1f1f" stop-opacity=".6"/><stop offset="1" stop-opacity=".9"/></linearGradient><linearGradient id="a"><stop offset="0" stop-color="#747474"/><stop offset=".5" stop-color="#888"/><stop offset="1" stop-color="#fff"/></linearGradient><radialGradient id="c" cx="205.3" cy="175.8" r="17.2" fx="205.3" fy="175.8" gradientTransform="matrix(1.63258 -.1062 .10015 1.53958 -148 -72.8)" gradientUnits="userSpaceOnUse" xlink:href="#a"/><radialGradient id="e" cx="187.2" cy="26.3" r="173" fx="187.2" fy="26.3" gradientTransform="matrix(2.8481 0 0 1.8838 -367.8 -15.5)" gradientUnits="userSpaceOnUse" xlink:href="#b"/></defs><path fill="#fff" d="M378 202.5a174.5 174.5 0 1 1-349 0 174.5 174.5 0 1 1 349 0z"/><path id="d" fill="url(#c)" fill-rule="evenodd" stroke-linecap="round" stroke-linejoin="round" stroke-width="6.3" d="M218.9 192.4a14 14 0 1 1-28 0 14 14 0 1 1 28 0z" transform="matrix(1.16085 0 0 1.16085 -32.6 -30.5)"/><use width="400" height="400" transform="translate(37.5 -9.3)" xlink:href="#d"/><use width="400" height="400" transform="matrix(.754 -.2025 .25938 .96578 73.1 32.3)" xlink:href="#d"/><use width="400" height="400" transform="matrix(.70163 -.16071 .20696 .9035 126.3 29.8)" xlink:href="#d"/><use width="400" height="400" transform="matrix(.52192 -.05567 .09443 .88534 211 7.5)" xlink:href="#d"/><use width="400" height="400" transform="matrix(.40972 -.10448 .21943 .86048 226.4 11.6)" xlink:href="#d"/><use width="400" height="400" transform="matrix(.18987 -.04241 .2054 .5639 280.4 37.8)" xlink:href="#d"/><use width="400" height="400" transform="matrix(.88566 .12685 -.16595 .98819 14.5 -15.9)" xlink:href="#d"/><use width="400" height="400" transform="matrix(.81281 .10128 -.12365 .99233 -12.8 -14.3)" xlink:href="#d"/><use width="400" height="400" transform="matrix(.78447 .11774 -.14203 .94633 -34.2 -16.5)" xlink:href="#d"/><use width="400" height="400" transform="matrix(.65148 .10403 -.14274 .89392 -33 -12.8)" xlink:href="#d"/><use width="400" height="400" transform="matrix(.40218 .05259 -.18458 .88013 7.4 -7)" xlink:href="#d"/><use width="400" height="400" transform="matrix(.26667 .02433 -.12434 .79385 10.7 10.5)" xlink:href="#d"/><use width="400" height="400" transform="matrix(.9387 -.13464 .14198 .98987 9 57)" xlink:href="#d"/><use width="400" height="400" transform="matrix(.91386 0 0 .93109 1.1 47)" xlink:href="#d"/><use width="400" height="400" transform="matrix(.8794 0 0 1 -35 38.2)" xlink:href="#d"/><use width="400" height="400" transform="matrix(.73423 -.10407 .1355 .95599 -66.1 60.1)" xlink:href="#d"/><use width="400" height="400" transform="matrix(.56928 0 0 .93109 -36.5 33.5)" xlink:href="#d"/><use width="400" height="400" transform="matrix(.4795 .17643 -.14829 .98894 -12 -21.7)" xlink:href="#d"/><use width="400" height="400" transform="matrix(.27558 .02113 -.05931 .77375 -4.9 43.5)" xlink:href="#d"/><use width="400" height="400" transform="matrix(.85847 -.07984 .0926 .9957 71.8 35.7)" xlink:href="#d"/><use width="400" height="400" transform="matrix(.75528 -.17824 .22969 .97327 102.2 53.5)" xlink:href="#d"/><use width="400" height="400" transform="matrix(.56958 -.23397 .27836 .83475 160.7 84.4)" xlink:href="#d"/><use width="400" height="400" transform="matrix(.50213 -.12557 .2008 .80298 212.3 61.7)" xlink:href="#d"/><use width="400" height="400" transform="matrix(.30432 -.06335 .18839 .73585 268 42.6)" xlink:href="#d"/><use width="400" height="400" transform="matrix(.85926 -.07074 .0722 .87714 59.9 96.3)" xlink:href="#d"/><use width="400" height="400" transform="matrix(.8794 0 0 .8794 30 87.5)" xlink:href="#d"/><use width="400" height="400" transform="scale(.79325) rotate(6.1 -1073.4 318.1)" xlink:href="#d"/><use width="400" height="400" transform="scale(.7588) rotate(12.5 -490.6 99.1)" xlink:href="#d"/><use width="400" height="400" transform="matrix(.6382 .10337 0 .82771 -35.5 70.4)" xlink:href="#d"/><use width="400" height="400" transform="matrix(.53825 .13438 0 .75662 -42.7 71.2)" xlink:href="#d"/><use width="400" height="400" transform="matrix(.32808 .17229 0 .68988 -21.2 63.7)" xlink:href="#d"/><use width="400" height="400" transform="rotate(-11.8 636.5 -370.8) scale(.8277)" xlink:href="#d"/><use width="400" height="400" transform="matrix(.55791 -.34216 .18378 .78937 171.5 151)" xlink:href="#d"/><use width="400" height="400" transform="matrix(.38317 -.2627 .1626 .72352 238 136.1)" xlink:href="#d"/><use width="400" height="400" transform="matrix(.23826 -.16335 .12518 .59066 293 133.2)" xlink:href="#d"/><use width="400" height="400" transform="matrix(.73905 0 0 .80045 37.8 137.2)" xlink:href="#d"/><use width="400" height="400" transform="matrix(.73483 .07883 -.0772 .71957 17 136.4)" xlink:href="#d"/><use width="400" height="400" transform="matrix(.64292 .07207 -.08233 .73445 1.4 129.6)" xlink:href="#d"/><use width="400" height="400" transform="matrix(.47277 .26323 -.10105 .62346 7.2 103.6)" xlink:href="#d"/><use width="400" height="400" transform="matrix(.28081 .21662 .11191 .65277 -18.3 100)" xlink:href="#d"/><use width="400" height="400" transform="rotate(-11 904.1 -135.3) scale(.7851)" xlink:href="#d"/><use width="400" height="400" transform="matrix(.70515 -.26308 .08478 .72597 110.7 195.8)" xlink:href="#d"/><use width="400" height="400" transform="matrix(.64084 -.19945 .06865 .79031 163.7 160.4)" xlink:href="#d"/><use width="400" height="400" transform="matrix(.54093 -.2317 .02552 .71156 222 168.9)" xlink:href="#d"/><use width="400" height="400" transform="matrix(.40135 -.1535 0 .58555 278.6 168.1)" xlink:href="#d"/><use width="400" height="400" transform="matrix(.76975 0 0 .76975 51.5 171.4)" xlink:href="#d"/><use width="400" height="400" transform="matrix(.7125 .07102 -.07102 .7125 40.3 167.2)" xlink:href="#d"/><use width="400" height="400" transform="matrix(.7501 -.0806 .0806 .7501 79 188.5)" xlink:href="#d"/><use width="400" height="400" transform="matrix(.69148 .148 -.01593 .66195 .1 158.5)" xlink:href="#d"/><use width="400" height="400" transform="matrix(.74019 -.14792 .06777 .7238 117.3 198.6)" xlink:href="#d"/><use width="400" height="400" transform="matrix(.5779 .11697 -.02274 .55815 -7.7 178.2)" xlink:href="#d"/><use width="400" height="400" transform="matrix(.62917 -.15568 .04509 .6005 178 212.5)" xlink:href="#d"/><use width="400" height="400" transform="matrix(.38993 .1348 .16325 .65217 -32.6 150.4)" xlink:href="#d"/><use width="400" height="400" transform="matrix(.40918 -.22993 .08303 .57182 244.8 217.5)" xlink:href="#d"/><use width="400" height="400" transform="matrix(.75325 .04159 -.02805 .50802 41.3 232.8)" xlink:href="#d"/><use width="400" height="400" transform="matrix(.753 -.05796 .03378 .43886 70 267.3)" xlink:href="#d"/><use width="400" height="400" transform="matrix(.62637 .14258 -.11558 .46587 52 218.7)" xlink:href="#d"/><use width="400" height="400" transform="matrix(.69037 -.26504 .17557 .45731 88 300.9)" xlink:href="#d"/><use width="400" height="400" transform="matrix(.65643 .17822 -.04745 .37661 -.8 223)" xlink:href="#d"/><use width="400" height="400" transform="matrix(.65356 -.38266 .22483 .384 121.3 327.7)" xlink:href="#d"/><use width="400" height="400" transform="matrix(.51909 .402 -.22847 .1884 36.1 209)" xlink:href="#d"/><use width="400" height="400" transform="matrix(.47843 -.35007 .19808 .27071 190.6 329.3)" xlink:href="#d"/><use width="400" height="400" transform="matrix(.64413 -.06035 .03243 .3461 73.3 302.8)" xlink:href="#d"/><use width="400" height="400" transform="matrix(.65832 .07252 -.04142 .37605 53.4 271.3)" xlink:href="#d"/><use width="400" height="400" transform="matrix(.69619 -.15104 .06874 .31685 85.2 326)" xlink:href="#d"/><use width="400" height="400" transform="matrix(.58042 .20708 -.11013 .30868 52.3 250.6)" xlink:href="#d"/><use width="400" height="400" transform="matrix(.58636 -.22388 .10188 .26684 131 342.8)" xlink:href="#d"/><use width="400" height="400" transform="matrix(.5597 -.32314 .09745 .16879 168.6 370)" xlink:href="#d"/><use width="400" height="400" transform="matrix(.5431 .25754 -.0915 .19296 32.4 257)" xlink:href="#d"/><use width="400" height="400" transform="matrix(.7883 .13896 -.15628 .88655 18 -33.8)" xlink:href="#d"/><use width="400" height="400" transform="matrix(.76975 0 0 .9079 25.8 -14.7)" xlink:href="#d"/><use width="400" height="400" transform="matrix(.7237 0 0 .91558 68 -24.1)" xlink:href="#d"/><use width="400" height="400" transform="matrix(.62921 .04693 -.06147 .82404 131 -21.7)" xlink:href="#d"/><use width="400" height="400" transform="matrix(.7178 0 0 .80463 133.2 -13.6)" xlink:href="#d"/><use width="400" height="400" transform="matrix(.57396 -.056 .0739 .75761 174.8 2.7)" xlink:href="#d"/><use width="400" height="400" transform="matrix(.46332 -.14598 .2267 .71953 192 23.6)" xlink:href="#d"/><use width="400" height="400" transform="matrix(.21233 -.0739 .20762 .5965 263 24.2)" xlink:href="#d"/><use width="400" height="400" transform="matrix(.52514 .08404 -.13983 .87376 39 -24.8)" xlink:href="#d"/><use width="400" height="400" transform="matrix(.43287 .07732 -.1475 .82576 35 -21.4)" xlink:href="#d"/><use width="400" height="400" transform="matrix(.36464 .09087 -.18772 .7533 36 -15.6)" xlink:href="#d"/><use width="400" height="400" transform="matrix(.28115 .10909 -.28123 .72478 53.9 -19.2)" xlink:href="#d"/><path fill="url(#e)" d="M372 207a173 173 0 1 1-346 0 173 173 0 1 1 346 0z" transform="matrix(1.00865 0 0 1.00865 2.8 -6.3)"/><path fill="none" stroke="#000" stroke-linejoin="round" stroke-width="5.0432500000000005" d="M378 202.5a174.5 174.5 0 1 1-349 0 174.5 174.5 0 1 1 349 0z"/></svg>