<svg xmlns="http://www.w3.org/2000/svg" viewBox="0 0 71.16 40.13"><defs><style>.cls-1{fill:#4b3570;}</style></defs><title>Asset 1</title><g id="Layer_2" data-name="Layer 2"><g id="Laag_1" data-name="Laag 1"><path class="cls-1" d="M10.23,16.54l1.25.66a6.72,6.72,0,0,1-1.42,1.94,5.8,5.8,0,0,1-1.81,1.13A6.43,6.43,0,0,1,6,20.65a5.47,5.47,0,0,1-4.39-1.84,6.29,6.29,0,0,1-.25-8.06A5.5,5.5,0,0,1,5.9,8.57a5.69,5.69,0,0,1,4.69,2.23,6.27,6.27,0,0,1,1.27,3.93H1.52A4.66,4.66,0,0,0,2.8,18a4.08,4.08,0,0,0,3.05,1.28A4.75,4.75,0,0,0,7.56,19,4.42,4.42,0,0,0,9,18.17,6.68,6.68,0,0,0,10.23,16.54Zm0-3.09a4.88,4.88,0,0,0-.86-1.89,4.15,4.15,0,0,0-1.5-1.14A4.54,4.54,0,0,0,5.92,10,4.19,4.19,0,0,0,3,11.08a4.87,4.87,0,0,0-1.34,2.37Z"/><path class="cls-1" d="M14.61,8.87h1.48v2.06a6.22,6.22,0,0,1,2-1.77,4.85,4.85,0,0,1,2.35-.59,4,4,0,0,1,2.28.66A3.86,3.86,0,0,1,24.16,11a9.49,9.49,0,0,1,.47,3.45v5.92H23.15V14.88A13.52,13.52,0,0,0,23,12.23a2.89,2.89,0,0,0-1-1.72,3,3,0,0,0-1.9-.57,3.65,3.65,0,0,0-2.4.88A4.19,4.19,0,0,0,16.3,13a15.32,15.32,0,0,0-.21,3.12v4.22H14.61Z"/><path class="cls-1" d="M37.7,8.87h1.48V18a10.91,10.91,0,0,1-.42,3.54,4.59,4.59,0,0,1-2,2.44,6.64,6.64,0,0,1-3.45.85,8.16,8.16,0,0,1-2.66-.41,5.32,5.32,0,0,1-1.91-1.13,6.57,6.57,0,0,1-1.37-2.06H29a4.22,4.22,0,0,0,1.69,1.69,5.4,5.4,0,0,0,2.57.55,5.34,5.34,0,0,0,2.55-.56,3.48,3.48,0,0,0,1.49-1.42,6.36,6.36,0,0,0,.44-2.75v-.59a5.73,5.73,0,0,1-2,1.62,5.91,5.91,0,0,1-2.56.57,6,6,0,0,1-3-.79A5.48,5.48,0,0,1,28,17.45a5.73,5.73,0,0,1-.76-2.92,6,6,0,0,1,5.94-6,5.44,5.44,0,0,1,2.4.54,6.64,6.64,0,0,1,2.15,1.75ZM33.34,10a4.58,4.58,0,0,0-2.33.61,4.37,4.37,0,0,0-1.69,1.67,4.6,4.6,0,0,0-.61,2.32A4.21,4.21,0,0,0,30,17.73,4.53,4.53,0,0,0,33.26,19a4.47,4.47,0,0,0,3.27-1.22,4.32,4.32,0,0,0,1.24-3.22,4.67,4.67,0,0,0-.57-2.32,4.09,4.09,0,0,0-1.61-1.61A4.56,4.56,0,0,0,33.34,10Z"/><path class="cls-1" d="M41.6,8.13h2.53a.6.6,0,0,0,.6-.6V6.11a.6.6,0,0,0-.6-.6h-.35a1.88,1.88,0,0,1-.37-.14,1,1,0,0,0-.42-.1h-.25a1,1,0,0,0-.43.1,1.66,1.66,0,0,1-.36.14H41.6a.6.6,0,0,0-.6.6V7.53A.6.6,0,0,0,41.6,8.13Zm1.26-.64a.67.67,0,1,1,.67-.67A.67.67,0,0,1,42.86,7.49Z"/><path class="cls-1" d="M46.45,26.43l-1.06,1.51h-5l-1.07-1.51h-.89v4.76h9V26.43ZM42.86,30a.77.77,0,0,1-.77-.77.78.78,0,1,1,.77.77Z"/><rect class="cls-1" x="42.12" y="8.87" width="1.48" height="18.31"/><path class="cls-1" d="M38.38,32.74c0,.46,2,.84,4.48.84s4.48-.38,4.48-.84v-.89h-9Z"/><path class="cls-1" d="M46.67,8.87h1.48v2.06a6.14,6.14,0,0,1,2-1.77,4.78,4.78,0,0,1,2.34-.59,4.07,4.07,0,0,1,2.29.66A3.9,3.9,0,0,1,56.22,11a9.49,9.49,0,0,1,.47,3.45v5.92H55.22V14.88a13.26,13.26,0,0,0-.17-2.65,2.93,2.93,0,0,0-1-1.72,3,3,0,0,0-1.91-.57,3.65,3.65,0,0,0-2.4.88,4.19,4.19,0,0,0-1.4,2.2,15.32,15.32,0,0,0-.21,3.12v4.22H46.67Z"/><path class="cls-1" d="M69.53,16.54l1.25.66a6.72,6.72,0,0,1-1.42,1.94,5.69,5.69,0,0,1-1.81,1.13,6.43,6.43,0,0,1-2.27.38,5.47,5.47,0,0,1-4.39-1.84,6.29,6.29,0,0,1-.25-8.06A5.5,5.5,0,0,1,65.2,8.57a5.68,5.68,0,0,1,4.69,2.23,6.27,6.27,0,0,1,1.27,3.93H60.82A4.7,4.7,0,0,0,62.1,18a4.08,4.08,0,0,0,3.05,1.28A4.75,4.75,0,0,0,66.86,19a4.31,4.31,0,0,0,1.41-.81A6.68,6.68,0,0,0,69.53,16.54Zm0-3.09a4.88,4.88,0,0,0-.86-1.89,4.15,4.15,0,0,0-1.5-1.14,4.54,4.54,0,0,0-2-.43,4.19,4.19,0,0,0-2.91,1.09A4.87,4.87,0,0,0,61,13.45Z"/><path class="cls-1" d="M53,39.83V23.91h1.48v6.41a6.28,6.28,0,0,1,2.08-1.71,5.74,5.74,0,0,1,2.52-.56,5.6,5.6,0,0,1,4.16,1.77A5.92,5.92,0,0,1,65,34.11a5.83,5.83,0,0,1-1.75,4.25A5.65,5.65,0,0,1,59,40.13a5.24,5.24,0,0,1-2.54-.61,6,6,0,0,1-2-1.8v2.11ZM58.9,38.7a4.47,4.47,0,0,0,3.93-2.31,4.66,4.66,0,0,0,0-4.66A4.5,4.5,0,0,0,61.16,30a4.37,4.37,0,0,0-2.24-.62,4.59,4.59,0,0,0-2.3.62,4.26,4.26,0,0,0-1.68,1.66A4.73,4.73,0,0,0,54.36,34a4.56,4.56,0,0,0,1.31,3.34A4.35,4.35,0,0,0,58.9,38.7Z"/><path class="cls-1" d="M23.09,23.91h1.48V30.4a6.48,6.48,0,0,1,2-1.77,4.83,4.83,0,0,1,2.34-.58,4.09,4.09,0,0,1,2.28.65,3.88,3.88,0,0,1,1.47,1.76,9.26,9.26,0,0,1,.48,3.46v5.91H31.63V34.35a13.59,13.59,0,0,0-.16-2.65,2.71,2.71,0,0,0-2.89-2.29,3.66,3.66,0,0,0-2.4.89,4.16,4.16,0,0,0-1.4,2.19,15.37,15.37,0,0,0-.21,3.13v4.21H23.09Z"/><path class="cls-1" d="M49.61,26.43H48.1v7.28a10.93,10.93,0,0,1-.23,2.82,3,3,0,0,1-1.19,1.56,3.55,3.55,0,0,1-2.09.6H41.12a3.55,3.55,0,0,1-2.09-.6,3.07,3.07,0,0,1-1.19-1.56,11.09,11.09,0,0,1-.22-2.82V26.43H36.11V34a8.9,8.9,0,0,0,.55,3.58,4.31,4.31,0,0,0,1.67,1.89,5.29,5.29,0,0,0,2.79.68h3.47a5.29,5.29,0,0,0,2.79-.68,4.25,4.25,0,0,0,1.67-1.89A8.87,8.87,0,0,0,49.61,34Z"/><path class="cls-1" d="M46.78,3.91A3.91,3.91,0,0,0,40,1.26h0l-.3.39a.76.76,0,0,0-.08.11L34.78,8a6.75,6.75,0,0,1,.76.25L39,3.83s0,0,0,.08a3.86,3.86,0,0,0,1.33,2.94V6.11a1.28,1.28,0,0,1,.09-.48,3,3,0,1,1,5-.09,1.33,1.33,0,0,1,.13.57v.74A3.9,3.9,0,0,0,46.78,3.91Z"/><path class="cls-1" d="M35.84,14.65c0-.06,0-.11,0-.17a2.67,2.67,0,0,0-2.67-2.66,2.71,2.71,0,0,0-.4,0l.84-1.1h-.29a5.09,5.09,0,0,0-.69.05l-1.6,2.09h0a2.65,2.65,0,0,0,3.73,3.7h0l.21-.19.09-.08L37,14.58v-.06a4.18,4.18,0,0,0-.08-.88Zm-2.65,1.57a1.74,1.74,0,1,1,1.74-1.74A1.73,1.73,0,0,1,33.19,16.22Z"/><polygon class="cls-1" points="39.93 11.92 41.36 10.61 41.36 9.6 39.93 10.91 39.93 11.92"/></g></g></svg>